<?xml version="1.0" standalone="no"?>
<!DOCTYPE svg PUBLIC "-//W3C//DTD SVG 20010904//EN"
 "http://www.w3.org/TR/2001/REC-SVG-20010904/DTD/svg10.dtd">
<svg version="1.0" xmlns="http://www.w3.org/2000/svg"
 width="500.000000pt" height="500.000000pt" viewBox="0 0 500.000000 500.000000"
 preserveAspectRatio="xMidYMid meet">
<metadata>
Created by potrace 1.11, written by Peter Selinger 2001-2013
</metadata>
<g transform="translate(0.000000,500.000000) scale(0.100000,-0.100000)"
fill="#000000" stroke="none">
<path d="M0 2500 l0 -2500 2500 0 2500 0 0 2500 0 2500 -2500 0 -2500 0 0
-2500z m4585 1300 c73 -36 176 -144 214 -223 27 -56 31 -76 31 -145 0 -65 -4
-84 -21 -106 -33 -42 -70 -56 -153 -56 -92 0 -107 11 -169 125 -56 103 -71
109 -161 67 -148 -69 -276 -245 -400 -547 -67 -165 -343 -947 -431 -1220 -42
-132 -84 -259 -92 -282 -29 -85 -81 -123 -168 -123 -113 0 -192 46 -219 128
-24 73 -109 531 -178 961 -62 385 -63 391 -77 349 -40 -123 -181 -504 -264
-714 -174 -439 -318 -725 -401 -802 -44 -40 -48 -42 -111 -42 -76 0 -113 16
-149 63 -22 29 -26 44 -26 106 0 71 1 75 59 170 118 194 211 402 364 811 91
245 232 664 276 819 l20 74 -27 -26 c-35 -33 -136 -88 -237 -128 -111 -44
-238 -68 -390 -74 l-130 -4 -306 -853 c-168 -469 -311 -863 -318 -876 -22 -41
-70 -62 -142 -62 -76 0 -117 21 -157 80 -47 69 -43 84 272 963 157 440 286
802 286 806 0 4 -44 22 -98 40 -53 18 -144 52 -202 76 -252 103 -351 120 -431
73 -79 -47 -151 -146 -127 -175 7 -9 47 -13 132 -13 102 0 126 -3 153 -20 41
-24 63 -68 70 -135 7 -70 -10 -119 -55 -153 -34 -26 -42 -27 -166 -30 -197 -5
-298 23 -393 111 -78 72 -88 101 -88 257 l0 136 38 76 c29 59 55 92 116 150
136 128 267 175 461 164 124 -6 216 -31 503 -135 491 -177 645 -178 957 -5 60
33 70 35 132 32 99 -5 157 -56 168 -146 l6 -47 22 90 c28 108 56 161 101 192
67 45 178 57 241 25 52 -26 76 -84 105 -257 15 -82 51 -280 80 -440 45 -236
133 -772 136 -819 0 -6 29 72 65 174 318 911 484 1254 691 1425 137 113 233
145 418 142 105 -2 126 -5 170 -27z"/>
</g>
</svg>
